The Adventures of Buckaroo Banzai Across the 8th Dimension (1984)
 
http://www.imdb.com/title/tt0086856/

This is my own rip, with 5.1 audio from the DVD.

General
Unique ID                        : 241683451089801548877121065221128374555 (0xB5D28A200EE7BFC997D18B508516C91B)
Format                           : Matroska
Format version                   : Version 2
File size                        : 3.32 GiB
Duration                         : 1h 42mn
Overall bit rate mode            : Variable
Overall bit rate                 : 4 642 Kbps
Encoded date                     : UTC 2012-10-19 16:37:58
Writing application              : mkvmerge v5.8.0 ('No Sleep / Pillow') built on Sep  2 2012 15:37:04
Writing library                  : libebml v1.2.3 + libmatroska v1.3.0

Video
ID                               : 1
Format                           : AVC
Format/Info                      : Advanced Video Codec
Format profile                   : High@L4.1
Format settings, CABAC           : Yes
Format settings, ReFrames        : 4 frames
Codec ID                         : V_MPEG4/ISO/AVC
Duration                         : 1h 42mn
Bit rate mode                    : Variable
Bit rate                         : 4 101 Kbps
Maximum bit rate                 : 20.4 Mbps
Width                            : 1 912 pixels
Height                           : 808 pixels
Display aspect ratio             : 2.35:1
Frame rate                       : 23.976 fps
Color space                      : YUV
Chroma subsampling               : 4:2:0
Bit depth                        : 8 bits
Scan type                        : Progressive
Bits/(Pixel*Frame)               : 0.111
Stream size                      : 2.94 GiB (88%)
Writing library                  : x264 core 125 r2208 d9d2288
Encoding settings                : cabac=1 / ref=5 / deblock=1:-1:-1 / analyse=0x3:0x133 / me=umh / subme=9 / psy=1 / psy_rd=1.00:0.15 / mixed_ref=1 / me_range=16 / chroma_me=1 / trellis=2 / 8x8dct=1 / cqm=0 / deadzone=21,11 / fast_pskip=1 / chroma_qp_offset=-3 / threads=12 / lookahead_threads=2 / sliced_threads=0 / nr=0 / decimate=1 / interlaced=0 / bluray_compat=0 / constrained_intra=0 / bframes=8 / b_pyramid=1 / b_adapt=2 / b_bias=0 / direct=3 / weightb=1 / open_gop=0 / weightp=2 / keyint=120 / keyint_min=12 / scenecut=40 / intra_refresh=0 / rc_lookahead=60 / rc=crf / mbtree=1 / crf=20.0 / qcomp=0.75 / qpmin=0 / qpmax=69 / qpstep=8 / vbv_maxrate=50000 / vbv_bufsize=32000 / crf_max=0.0 / nal_hrd=vbr / ip_ratio=1.40 / aq=1:1.00
Language                         : English
Default                          : Yes
Forced                           : No
Color primaries                  : BT.709-5, BT.1361, IEC 61966-2-4, SMPTE RP177
Transfer characteristics         : BT.709-5, BT.1361
Matrix coefficients              : BT.709-5, BT.1361, IEC 61966-2-4 709, SMPTE RP177

Audio
ID                               : 2
Format                           : AC-3
Format/Info                      : Audio Coding 3
Mode extension                   : CM (complete main)
Codec ID                         : A_AC3
Duration                         : 1h 42mn
Bit rate mode                    : Constant
Bit rate                         : 448 Kbps
Channel(s)                       : 6 channels
Channel positions                : Front: L C R, Side: L R, LFE
Sampling rate                    : 48.0 KHz
Bit depth                        : 16 bits
Compression mode                 : Lossy
Stream size                      : 328 MiB (10%)
Language                         : English
Default                          : Yes
Forced                           : No

Menu
00:00:00.000                     : Title/Credits/Speed
00:11:02.745                     : Crazy Doc
00:17:47.233                     : Penny Priddy
00:24:27.716                     : Big Fans
00:29:48.912                     : Alien Invasion
00:37:45.889                     : Unhatching
00:43:39.700                     : Breaking Through
00:47:16.731                     : Not a Hoax
00:52:23.037                     : Forewarning
00:56:51.408                     : Valuable Gadget
01:03:17.752                     : Threat From Above
01:08:20.763                     : Plan of Attack
01:14:38.766                     : Torture Chamber
01:22:08.757                     : Rescue Mission
01:34:15.233                     : Sparks Fly
01:38:16.265                     : End Credits